<svg enable-background="new -36 -245.9 30 620" viewBox="-36 -245.9 30 620" xmlns="http://www.w3.org/2000/svg"><path d="m-10.4-179.6c-5.9-5.8-15.4-5.8-21.3 0-5.8 5.9-5.8 15.3 0 21.2 5.9 5.9 15.4 5.9 21.3 0 5.9-5.8 5.9-15.3 0-21.2" fill="#b0d375"/><path d="m-12.2-177.7c-4.8-4.8-12.8-4.8-17.6 0-4.8 4.8-4.8 12.8 0 17.6 4.8 4.8 12.8 4.8 17.6 0 4.9-4.9 4.9-12.8 0-17.6" fill="#d8e59e"/><g fill="#fff" transform="translate(2 3)"><path d="m-35.5-171.9h12.5l-8.8-8.8c-2.5 2.3-3.7 5.5-3.7 8.8"/><path d="m-23-159.5v-12.4l-8.8 8.8c2.5 2.4 5.6 3.6 8.8 3.6"/><path d="m-10.5-171.9h-12.5l8.8 8.8c2.5-2.5 3.7-5.6 3.7-8.8"/><path d="m-14.2-180.7c-2.4-2.5-5.6-3.6-8.8-3.6v12.4z"/></g><path d="m-15.9-174c-2.8-2.8-7.3-2.8-10.1 0-2.8 2.8-2.8 7.3 0 10.1 2.8 2.8 7.3 2.8 10.1 0 2.7-2.8 2.7-7.3 0-10.1" fill="#b0d375"/><g transform="translate(0 29)"><path d="m-10.5-178.5l-4.5-1.5c-4.9 4.1-14.6 13.7-18.1 18.2l.2 5.4 2 1.7 4.7-.1c4.5-3.5 14.2-13.2 18.2-18.1z" fill="#727272"/><path d="m-12-179l-19.3 19.3 3 3 19.1-19-1.3-2.8z" fill="#ffcc7b"/><path d="m-26.6-156.4c-.4-.4-1.1-.4-1.7-.2.8-1.4.9-2.7.2-3.3s-1.8-.5-3.2.2c.2-.8.2-1.4-.2-1.7-.4-.4-1-.4-1.6-.3l-2 5.9.5 2 2.7 1.1 5.8-2c-.1-.7-.1-1.3-.5-1.7" fill="#f7d9a9"/><path d="m-35.1-156.1l-.9 2.4c-.3 1.2.8 2.1 1.8 1.8l2.4-.9c-.4-.6-.9-1.3-1.5-1.9-.5-.6-1.2-1-1.8-1.4" fill="#727272"/><path d="m-12.1-181.9c-.4 0-1.5.8-2.9 1.9l7.1 7.1c1.2-1.5 1.9-2.5 1.9-2.9 0-.6-.3-1.4-.9-2.1-.8-1.2-1.9-2.3-3-3-.8-.7-1.6-1-2.2-1" fill="#ff6671"/></g><g transform="translate(3 112)"><path d="m-15.1-224.1l-4.8 3.2v-11.4c0-1.3-1.4-2-2.5-1.3-4.3 3-13 8.3-13 18.2v.6c0 6 5.1 10.9 11.4 10.9s11.4-4.9 11.4-10.9v-8c0-1.3-1.4-1.9-2.5-1.3z" fill="#ff6671"/><path d="m-18.6-212.2c0-2.9-2.4-5.3-5.4-5.3s-5.2 2.4-5.2 5.3c0 2.9 2.4 5.2 5.2 5.2s5.4-2.3 5.4-5.2" fill="#ffcc7b"/></g><path d="m-6.4-237.2c-.2-.2-4.6-.3-8-.3 0-3.4-.1-8-.3-8.1-.4-.4-12-.4-12.5 0-.2.2-.3 4.6-.3 8.1-3.4 0-7.9.1-8 .3-.4.4-.4 12 0 12.6.2.2 4.6.3 8 .3 0 3.4.1 8 .3 8.1.4.4 12 .4 12.5 0 .2-.2.3-4.6.3-8.1 3.4 0 7.9-.1 8-.3.5-.5.5-12.2 0-12.6z" fill="#c6c6c6"/><path d="m-17.1-240c-1.2-1.6-2.6-3-4-4.1-1.4 1.2-2.8 2.6-4 4.1 2.7.1 5.3.1 8 0" fill="#969fa3"/><path d="m-25.1-221.9c1.2 1.6 2.6 3 4 4.1 1.4-1.2 2.8-2.6 4-4.1-2.7-.1-5.2-.1-8 0" fill="#969fa3"/><path d="m-12.1-227c1.6-1.2 3-2.6 4.1-4-1.2-1.4-2.6-2.8-4.1-4-.1 2.8-.1 5.3 0 8" fill="#969fa3"/><path d="m-30.1-234.9c-1.6 1.2-3 2.6-4.1 4 1.2 1.4 2.6 2.8 4.1 4 .1-2.8.1-5.3 0-8" fill="#969fa3"/><path d="m-16.7-231c0-2.5-2-4.4-4.4-4.4-2.5 0-4.4 2-4.4 4.4s2 4.4 4.4 4.4c2.5.1 4.4-1.9 4.4-4.4" fill="#969fa3"/><g transform="translate(0 27)"><path d="m-21-233.5l-3.5-6.8c-.4-.9-1.4-1.5-2.4-1.5h-6.9c-1.1 0-1.9.9-2 2-.2 8 0 20.9.9 21.7 1.4 1.4 26.6 1.4 28 .1.5-.5.9-7.1 1-12.6z" fill="#52a1d1"/><path d="m-33.9-236.6c-1.1 0-1.9.9-2 2-.2 8 0 20.9.9 21.7 1.3 1.3 26.6 1.3 28 0 .9-.9 1.2-13.7.9-21.7 0-1.1-1-2-2-2z" fill="#82cef9"/><path d="m-22.8-226.7c-.1-.1-1.8-.1-3.2-.1 0-1.4-.1-3.2-.1-3.3-.2-.2-3.2-.2-3.4 0-.1.1-.1 1.8-.1 3.3-1.4 0-3.1.1-3.2.1-.2.2-.2 3.3 0 3.5.1.1 1.8.1 3.2.1 0 1.4.1 3.2.1 3.3.2.2 3.2.2 3.4 0 .1-.1.1-1.8.1-3.3 1.4 0 3.1-.1 3.2-.1.1-.2.1-3.3 0-3.5" fill="#52a1d1"/><path d="m-15.7-224.9c0 1-.9 1.8-1.8 1.8-1 0-1.8-.9-1.8-1.8s.9-1.8 1.8-1.8c.9-.1 1.8.7 1.8 1.8" fill="#52a1d1"/><path d="m-8.7-224.9c0 1-.9 1.8-1.8 1.8s-1.8-.9-1.8-1.8.9-1.8 1.8-1.8 1.8.7 1.8 1.8" fill="#52a1d1"/><path d="m-14-226.7c-1 0-1.8-.9-1.8-1.8 0-1 .9-1.8 1.8-1.8s1.8.9 1.8 1.8c0 .9-.9 1.8-1.8 1.8" fill="#52a1d1"/><path d="m-14-219.5c-1 0-1.8-.9-1.8-1.8s.9-1.8 1.8-1.8 1.8.9 1.8 1.8-.9 1.8-1.8 1.8" fill="#52a1d1"/></g><path d="m-25.1-67.2v2.2c.1 1.3.4 2.4 1 2.9 1.5 1.5 4.7 1.5 6.2 0 .5-.5.9-1.6 1-2.9v-2.2z" fill="#f2ae5c"/><path d="m-6.1-67.4c-.8-2.1-2.4-4.5-5.6-7.9 0-1.5 0-3.3 0-4.2 0-.3 0-1.1 0-2.1 0-5.1-4.2-9.3-9.3-9.3s-9.3 4.2-9.3 9.3c0 1.1 0 1.8 0 2.1 0 .9 0 2.7 0 4.2-3.3 3.4-4.8 5.8-5.6 7.9-.3 1 .4 1.8 1.6 2 1.7.2 4.1.4 9.2.5l0 0h8.2l0 0c5-.1 7.5-.3 9.2-.5 1.2-.2 1.9-1.1 1.6-2z" fill="#ffcc7b"/><path d="m-25.1-36.2v2.2c.1 1.3.4 2.4 1 2.9 1.5 1.5 4.7 1.5 6.2 0 .5-.5.9-1.6 1-2.9v-2.2z" fill="#f2ae5c"/><ellipse cx="-12" cy="-53.8" fill="#ff6671" rx="6" ry="6"/><path d="m-13-52.9c.4.4 1.4.4 1.8 0 .4-.4.4-4.5 0-5-.4-.4-1.4-.4-1.8 0-.4.5-.4 4.5 0 5z" fill="#fff"/><path d="m-13-49.6c.4.4 1.4.4 1.8 0 .4-.4.4-1.3 0-1.7-.4-.4-1.4-.4-1.8 0-.4.4-.4 1.1 0 1.7z" fill="#fff"/><path d="m-11.7-44.3c0-.4 0-1 0-1.4-.1 0-.2 0-.3 0-4.5 0-8.3-3.7-8.3-8.2 0-2.1.9-4.1 2.1-5.6-1-.3-1.9-.4-2.9-.4-5.1 0-9.3 4.2-9.3 9.3 0 1.1 0 1.8 0 2.1 0 .9 0 2.7 0 4.2-3.3 3.4-4.8 5.8-5.6 7.9-.3 1 .4 1.8 1.6 2 1.7.2 4.1.4 9.2.5l0 0h8.2l0 0c5-.1 7.5-.3 9.2-.5 1.2-.1 1.9-1.1 1.6-2-.7-2.2-2.2-4.5-5.5-7.9z" fill="#ffcc7b"/><ellipse cx="-12" cy="-22.9" fill="#ff6671" rx="6" ry="6"/><path d="m-13-22c .4.4 1.4.4 1.8 0 .4-.4.4-4.5 0-5-.4-.4-1.4-.4-1.8 0-.4.5-.4 4.5 0 5z" fill="#fff"/><path d="m-13-18.7c.4.4 1.4.4 1.8 0 .4-.4.4-1.3 0-1.7-.4-.4-1.4-.4-1.8 0-.4.4-.4 1.1 0 1.7z" fill="#fff"/><path d="m-19.2-2.9c-.1.7-.3 1.2-.3 1.3-.2.2-.8.4-1.5.4s-1.3-.2-1.5-.4c-.1-.1-.2-.5-.3-1.3zm2.3-2.2h-8.2l0 0v2.2c.1 1.3.4 2.4 1 2.9.8.7 1.9 1.1 3.1 1.1s2.4-.3 3.1-1.1c.5-.5.9-1.6 1-2.9z" fill="#636669"/><path d="m-11.7-13.3c0-.4 0-1 0-1.4-.1 0-.2 0-.3 0-.6 0-1.3-.1-1.9-.2 0 .5 0 1.1 0 1.6v1l .6.6c2.5 2.6 3.9 4.4 4.7 6.2-1.6.2-3.9.3-8.4.4h-8.2c-4.4-.1-6.8-.2-8.4-.4.9-1.7 2.4-3.6 4.7-6.2l.6-.6v-1c0-1.5 0-3.3 0-4.2 0-.3 0-1.1 0-2.1 0-3.9 3.2-7.1 7.1-7.1.5 0 1.1.1 1.6.2.3-.7.8-1.4 1.3-1.9-1-.3-1.9-.4-2.9-.4-5.1 0-9.3 4.2-9.3 9.3 0 1.1 0 1.8 0 2.1 0 .9 0 2.7 0 4.2-3.3 3.4-4.8 5.8-5.6 7.9-.3 1 .4 1.8 1.6 2 1.7.2 4.1.4 9.2.5l0 0h8.2l0 0c5-.1 7.5-.3 9.2-.5 1.2-.1 1.9-1.1 1.6-2-.6-2.3-2.1-4.5-5.4-8z" fill="#636669"/><path d="m-19.3 19l0 0-.1-.1c-1.8-1-3-1.8-3.3-2.2-.1-.4-.2-1.7-.2-3.5-1.1-.3-2.1-.5-3.3-.5-5.4 0-9.7 4.4-9.7 9.7 0 5.4 4.4 9.7 9.7 9.7s9.7-4.4 9.7-9.7c0-.6-.1-1.3-.2-1.9-.7-.4-1.5-.8-2.6-1.5z" fill="#ffcc7b"/><path d="m-6 12.6c.1-2.2-.1-4.6-.5-5.3-.4-.6-2.2-1.9-4.3-3-1.9-1.2-4.1-2.2-4.8-2.2-.7 0-2.9 1-4.8 2.2-2 1.1-3.9 2.4-4.3 3-.4.6-.5 3-.5 5.3-.1 2.2.1 4.6.5 5.3.4.6 2.2 1.9 4.3 3 1.9 1.2 4.1 2.2 4.8 2.2.7 0 2.9-1 4.8-2.2 2-1.1 3.9-2.4 4.3-3 .4-.7.6-3 .5-5.3z" fill="#85d0d3"/><path d="m-14.8 17.7c-.5.3-1.1.3-1.6 0-.4-.2-1-.5-1.4-.9l-.4-.2c-.5-.3-1-.5-1.4-.7-.5-.3-.7-.9-.7-1.4 0-.5 0-1.1 0-1.6v-.5c0-.6 0-1.2 0-1.6 0-.5.3-1.1.7-1.4.4-.2.9-.5 1.4-.7l.4-.2c.5-.3 1-.6 1.4-.9.5-.3 1.1-.3 1.6 0 .4.2 1 .5 1.4.9l.4.2c.5.3 1 .5 1.4.7.5.3.7.9.7 1.4 0 .5 0 1.1 0 1.6v.5c0 .6 0 1.2 0 1.6 0 .5-.3 1.1-.7 1.4-.4.2-.9.5-1.4.7l-.4.2c-.5.4-1 .7-1.4.9z" fill="#ace4ea"/><circle cx="-26.3" cy="22.4" fill="#f2ae5c" r="4.5"/><path d="m-6.2 40.5c-.2-2.4-.4-4.2-1.7-5.6-1.4-1.4-3-1.5-6.3-1.7-1.8-.1-4.3-.1-6.9-.1s-5 .1-6.9.2c-3.3.2-4.9.4-6.2 1.8-1.4 1.4-1.5 3.2-1.7 5.6-.1 1.5-.1 1.8-.1 3.8s.1 2.4.2 3.8c.2 2.4.4 4.2 1.7 5.6 1.3 1.3 2.8 1.5 5.7 1.6v.6 5.6c0 1.2 1.4 1.7 2.3 1.1l7.2-7.3c1.8 0 3.5-.1 4.9-.2 3.3-.2 4.9-.4 6.2-1.8 1.4-1.4 1.5-3.2 1.7-5.6.1-1.4.1-1.8.1-3.8 0-1.8-.1-2.1-.2-3.6z" fill="#fffcee"/><ellipse cx="-28.7" cy="44.4" fill="#3d607a" rx="2.7" ry="2.7"/><ellipse cx="-21" cy="44.4" fill="#3d607a" rx="2.7" ry="2.7"/><ellipse cx="-13.2" cy="44.4" fill="#3d607a" rx="2.7" ry="2.7"/><path d="m-6.2 70.4c-.1-2-.3-3.5-1.5-4.7-1.2-1.2-2.5-1.3-5.3-1.5-1.6-.1-2.2-.1-4.4-.1-2.1 0-2.8 0-4.4.1-2.8.1-4.2.3-5.3 1.5-1.2 1.2-1.3 2.7-1.5 4.7 0 .2 0 .5 0 1h .1c1.3-.1 1.9-.1 3.8-.1s2.6 0 3.8.1h.4c2.8.1 3.3.3 3.8.9s.7 1.5.9 3.3c.1 1.2.1 4.3.1 6.1 0 1.8 0 4.9-.1 6.1 0 .6-.1 1.2-.1 1.6 1.1 0 1.7-.1 2.9-.1 2.8-.1 4.2-.3 5.3-1.5 1.2-1.2 1.3-2.7 1.5-4.7.2-1.3.2-4.5.2-6.3-.1-1.9-.1-5.1-.2-6.4z" fill="#e5cfb1"/><path d="m-13.5 75.4c-.1-2-.3-3.5-1.5-4.7s-2.5-1.3-5.3-1.5c-1.6-.1-2.2-.1-4.4-.1s-2.8 0-4.4.1c-2.8.1-4.2.3-5.3 1.5-1.2 1.2-1.3 2.7-1.5 4.7-.1 1.3-.1 4.5-.1 6.2 0 1.7 0 4.9.1 6.2.1 2 .3 3.5 1.5 4.7 1.2 1.2 2.5 1.3 5.3 1.5 1.6.1 2.2.1 4.4.1s2.8 0 4.4-.1c2.8-.1 4.2-.3 5.3-1.5 1.2-1.2 1.3-2.7 1.5-4.7.1-1.3.1-4.5.1-6.2 0-1.7-.1-5-.1-6.2z" fill="#fffcee"/><path d="m-20.2 78.1h-8.6c-.6 0-1.1-.5-1.1-1.1 0-.6.5-1.1 1.1-1.1h8.6c.6 0 1.1.5 1.1 1.1 0 .7-.5 1.1-1.1 1.1z" fill="#3d607a"/><path d="m-20.2 82.6h-8.6c-.6 0-1.1-.5-1.1-1.1 0-.6.5-1.1 1.1-1.1h8.6c.6 0 1.1.5 1.1 1.1 0 .7-.5 1.1-1.1 1.1z" fill="#3d607a"/><path d="m-20.2 87.1h-8.6c-.6 0-1.1-.5-1.1-1.1 0-.6.5-1.1 1.1-1.1h8.6c.6 0 1.1.5 1.1 1.1 0 .7-.5 1.1-1.1 1.1z" fill="#3d607a"/><path d="m-18.1 108.1c-1.3-1.3-4.6-1.3-5.9 0-1.3 1.3-1.3 14.7 0 16.1 1.3 1.3 4.6 1.3 5.9 0 1.3-1.3 1.3-14.7 0-16.1z" fill="#aa74ce"/><path d="m-7 100.1c-1.3-1.3-4.6-1.3-5.9 0-1.3 1.3-1.3 22.7 0 24 1.3 1.3 4.6 1.3 5.9 0 1.3-1.2 1.3-22.7 0-24z" fill="#c08add"/><path d="m-29.2 96.1c-1.3-1.3-4.6-1.3-5.9 0-1.3 1.3-1.3 26.7 0 28.1 1.3 1.3 4.6 1.3 5.9 0 1.3-1.3 1.3-26.7 0-28.1z" fill="#c08add"/><circle cx="-28.5" cy="148.6" fill="#6dcce5" r="7.5"/><circle cx="-13.5" cy="148.6" fill="#6dcce5" r="7.5"/><path d="m-27.4 152.7h14.7l-.8-8.6v-3h-15v9.2" fill="#6dcce5"/><path d="m-28.5 154.2c-3.1 0-5.6-2.5-5.6-5.6 0-3.1 2.5-5.6 5.6-5.6s5.6 2.5 5.6 5.6c0 3-2.5 5.6-5.6 5.6z" fill="#52b3d1"/><path d="m-13.5 154.2c-3.1 0-5.6-2.5-5.6-5.6 0-3.1 2.5-5.6 5.6-5.6s5.6 2.5 5.6 5.6c.1 3-2.5 5.6-5.6 5.6z" fill="#52b3d1"/><path d="m-29.8 144.6c-.5.5-.5 7.4 0 7.8.5.5 1.7.5 2.1 0 .5-.5.5-7.4 0-7.8-.4-.5-1.5-.5-2.1 0z" fill="#3d607a"/><path d="m-24.8 147.4c-.5-.5-7.4-.5-7.8 0-.5.5-.5 1.7 0 2.1.5.5 7.4.5 7.8 0 .6-.4.6-1.5 0-2.1z" fill="#3d607a"/><circle cx="-15.2" cy="150.3" fill="#e03455" r="1.7"/><circle cx="-11.7" cy="146.8" fill="#e03455" r="1.7"/><circle cx="-28.5" cy="179.6" fill="#fffcee" r="7.5"/><circle cx="-13.5" cy="179.6" fill="#fffcee" r="7.5"/><path d="m-27.4 183.7h14.7l-.8-8.6v-3h-15v9.2" fill="#fffcee"/><path d="m-28.5 185.3c-3.1 0-5.6-2.5-5.6-5.6 0-3.1 2.5-5.6 5.6-5.6s5.6 2.5 5.6 5.6c0 3.1-2.5 5.6-5.6 5.6z" fill="#ede5cc"/><path d="m-13.5 185.3c-3.1 0-5.6-2.5-5.6-5.6 0-3.1 2.5-5.6 5.6-5.6s5.6 2.5 5.6 5.6c0 3.1-2.5 5.6-5.6 5.6z" fill="#ede5cc"/><path d="m-29.8 175.6c-.5.5-.5 7.4 0 7.8.5.5 1.7.5 2.1 0 .5-.5.5-7.4 0-7.8-.4-.4-1.5-.4-2.1 0z" fill="#3d607a"/><path d="m-24.8 178.5c-.5-.5-7.4-.5-7.8 0-.5.5-.5 1.7 0 2.1.5.5 7.4.5 7.8 0 .6-.4.6-1.5 0-2.1z" fill="#3d607a"/><circle cx="-15.2" cy="181.4" fill="#e03455" r="1.7"/><circle cx="-11.7" cy="177.9" fill="#e03455" r="1.7"/></svg>