<svg viewBox="0 0 18 19" xmlns="http://www.w3.org/2000/svg"><g fill="none" fill-rule="evenodd" transform="translate(0 .5)"><path d="m17.863 8.931c0 4.931-3.997 8.927-8.927 8.927-4.931 0-8.928-3.997-8.928-8.927 0-4.931 3.997-8.928 8.928-8.928 4.931 0 8.927 3.997 8.927 8.928" fill="#eed775"/><path d="m16.244 8.931c0 4.04-3.272 7.309-7.309 7.309-4.04 0-7.309-3.272-7.309-7.309 0-4.04 3.272-7.308 7.309-7.308 4.04 0 7.309 3.272 7.309 7.308" fill="#e9a643"/><path d="m15 8.931c0 3.35-2.716 6.07-6.07 6.07-3.35 0-6.07-2.716-6.07-6.07 0-3.35 2.716-6.07 6.07-6.07 3.35 0 6.07 2.716 6.07 6.07" fill="#ecbf4a"/><g fill="#fcefb5"><path d="m13.165 7.847l-2.245 1.296.624 2.711 1.621-4.01"/><path d="m4.705 7.847l1.621 4.01.624-2.713-2.245-1.296"/><path d="m8.935 5.404l2.609 6.451h-5.218l2.609-6.451"/></g></g></svg>