<svg viewBox="0 0 120 321" xmlns="http://www.w3.org/2000/svg" xmlns:xlink="http://www.w3.org/1999/xlink"><defs><use id="0" xlink:href="#A"/><use id="1" xlink:href="#A"/><use id="2" xlink:href="#A"/><use id="3" xlink:href="#A"/><use id="4" xlink:href="#A"/><path id="A" d="m20.942 7.127l-6.15-.894-2.75-5.573c-.435-.881-1.691-.881-2.126 0l-2.75 5.573-6.15.894c-.972.141-1.36 1.336-.657 2.02l4.45 4.338-1.051 6.125c-.166.968.85 1.706 1.72 1.249l5.501-2.892 5.501 2.892c.869.457 1.886-.281 1.72-1.249l-1.051-6.125 4.45-4.338c.703-.686.315-1.881-.657-2.02"/><path id="B" d="m11-2h11v26h-11z"/><mask id="8" fill="#fff"><use xlink:href="#3"/></mask><mask id="9" fill="#fff"><use xlink:href="#4"/></mask><mask id="7" fill="#fff"><use xlink:href="#2"/></mask><mask id="5" fill="#fff"><use xlink:href="#0"/></mask><mask id="6" fill="#fff"><use xlink:href="#1"/></mask></defs><g fill="none" fill-rule="evenodd"><g fill="#e0e0e1"><use xlink:href="#A"/><path d="m44.942 7.127l-6.15-.894-2.75-5.573c-.435-.881-1.691-.881-2.126 0l-2.75 5.573-6.15.894c-.972.141-1.36 1.336-.657 2.02l4.45 4.338-1.051 6.125c-.166.968.85 1.706 1.72 1.249l5.501-2.892 5.501 2.892c.869.457 1.886-.281 1.72-1.249l-1.051-6.125 4.45-4.338c.703-.686.315-1.881-.657-2.02"/><path d="m68.942 7.127l-6.15-.894-2.75-5.573c-.435-.881-1.691-.881-2.126 0l-2.75 5.573-6.15.894c-.972.141-1.36 1.336-.657 2.02l4.45 4.338-1.051 6.125c-.166.968.85 1.706 1.72 1.249l5.501-2.892 5.501 2.892c.869.457 1.886-.281 1.72-1.249l-1.051-6.125 4.45-4.338c.703-.686.315-1.881-.657-2.02"/><path d="m92.94 7.127l-6.15-.894-2.75-5.573c-.435-.881-1.691-.881-2.126 0l-2.75 5.573-6.15.894c-.972.141-1.36 1.336-.657 2.02l4.45 4.338-1.051 6.125c-.166.968.85 1.706 1.72 1.249l5.501-2.892 5.501 2.892c.869.457 1.886-.281 1.72-1.249l-1.051-6.125 4.45-4.338c.703-.686.315-1.881-.657-2.02"/><path d="m116.94 7.127l-6.15-.894-2.75-5.573c-.435-.881-1.691-.881-2.126 0l-2.75 5.573-6.15.894c-.972.141-1.36 1.336-.657 2.02l4.45 4.338-1.051 6.125c-.166.968.85 1.706 1.72 1.249l5.501-2.892 5.501 2.892c.869.457 1.886-.281 1.72-1.249l-1.051-6.125 4.45-4.338c.703-.686.315-1.881-.657-2.02"/></g><path d="m20.942 37.13l-6.15-.894-2.75-5.573c-.435-.881-1.691-.881-2.126 0l-2.75 5.573-6.15.894c-.972.141-1.36 1.336-.657 2.02l4.45 4.338-1.051 6.125c-.166.968.85 1.706 1.72 1.249l5.501-2.892 5.501 2.892c.869.457 1.886-.281 1.72-1.249l-1.051-6.125 4.45-4.338c.703-.686.315-1.881-.657-2.02" fill="#ffc834"/><g fill="#e0e0e1"><path d="m44.942 37.13l-6.15-.894-2.75-5.573c-.435-.881-1.691-.881-2.126 0l-2.75 5.573-6.15.894c-.972.141-1.36 1.336-.657 2.02l4.45 4.338-1.051 6.125c-.166.968.85 1.706 1.72 1.249l5.501-2.892 5.501 2.892c.869.457 1.886-.281 1.72-1.249l-1.051-6.125 4.45-4.338c.703-.686.315-1.881-.657-2.02"/><path d="m68.942 37.13l-6.15-.894-2.75-5.573c-.435-.881-1.691-.881-2.126 0l-2.75 5.573-6.15.894c-.972.141-1.36 1.336-.657 2.02l4.45 4.338-1.051 6.125c-.166.968.85 1.706 1.72 1.249l5.501-2.892 5.501 2.892c.869.457 1.886-.281 1.72-1.249l-1.051-6.125 4.45-4.338c.703-.686.315-1.881-.657-2.02"/><path d="m92.94 37.13l-6.15-.894-2.75-5.573c-.435-.881-1.691-.881-2.126 0l-2.75 5.573-6.15.894c-.972.141-1.36 1.336-.657 2.02l4.45 4.338-1.051 6.125c-.166.968.85 1.706 1.72 1.249l5.501-2.892 5.501 2.892c.869.457 1.886-.281 1.72-1.249l-1.051-6.125 4.45-4.338c.703-.686.315-1.881-.657-2.02"/><path d="m116.94 37.13l-6.15-.894-2.75-5.573c-.435-.881-1.691-.881-2.126 0l-2.75 5.573-6.15.894c-.972.141-1.36 1.336-.657 2.02l4.45 4.338-1.051 6.125c-.166.968.85 1.706 1.72 1.249l5.501-2.892 5.501 2.892c.869.457 1.886-.281 1.72-1.249l-1.051-6.125 4.45-4.338c.703-.686.315-1.881-.657-2.02"/></g><g fill="#ffc834"><path d="m20.942 67.13l-6.15-.894-2.75-5.573c-.435-.881-1.691-.881-2.126 0l-2.75 5.573-6.15.894c-.972.141-1.36 1.336-.657 2.02l4.45 4.338-1.051 6.125c-.166.968.85 1.706 1.72 1.249l5.501-2.892 5.501 2.892c.869.457 1.886-.281 1.72-1.249l-1.051-6.125 4.45-4.338c.703-.686.315-1.881-.657-2.02"/><path d="m44.942 67.13l-6.15-.894-2.75-5.573c-.435-.881-1.691-.881-2.126 0l-2.75 5.573-6.15.894c-.972.141-1.36 1.336-.657 2.02l4.45 4.338-1.051 6.125c-.166.968.85 1.706 1.72 1.249l5.501-2.892 5.501 2.892c.869.457 1.886-.281 1.72-1.249l-1.051-6.125 4.45-4.338c.703-.686.315-1.881-.657-2.02"/></g><g fill="#e0e0e1"><path d="m68.942 67.13l-6.15-.894-2.75-5.573c-.435-.881-1.691-.881-2.126 0l-2.75 5.573-6.15.894c-.972.141-1.36 1.336-.657 2.02l4.45 4.338-1.051 6.125c-.166.968.85 1.706 1.72 1.249l5.501-2.892 5.501 2.892c.869.457 1.886-.281 1.72-1.249l-1.051-6.125 4.45-4.338c.703-.686.315-1.881-.657-2.02"/><path d="m92.94 67.13l-6.15-.894-2.75-5.573c-.435-.881-1.691-.881-2.126 0l-2.75 5.573-6.15.894c-.972.141-1.36 1.336-.657 2.02l4.45 4.338-1.051 6.125c-.166.968.85 1.706 1.72 1.249l5.501-2.892 5.501 2.892c.869.457 1.886-.281 1.72-1.249l-1.051-6.125 4.45-4.338c.703-.686.315-1.881-.657-2.02"/><path d="m116.94 67.13l-6.15-.894-2.75-5.573c-.435-.881-1.691-.881-2.126 0l-2.75 5.573-6.15.894c-.972.141-1.36 1.336-.657 2.02l4.45 4.338-1.051 6.125c-.166.968.85 1.706 1.72 1.249l5.501-2.892 5.501 2.892c.869.457 1.886-.281 1.72-1.249l-1.051-6.125 4.45-4.338c.703-.686.315-1.881-.657-2.02"/></g><g fill="#ffc834"><path d="m20.942 97.13l-6.15-.894-2.75-5.573c-.435-.881-1.691-.881-2.126 0l-2.75 5.573-6.15.894c-.972.141-1.36 1.336-.657 2.02l4.45 4.338-1.051 6.125c-.166.968.85 1.706 1.72 1.249l5.501-2.892 5.501 2.892c.869.457 1.886-.281 1.72-1.249l-1.051-6.125 4.45-4.338c.703-.686.315-1.881-.657-2.02"/><path d="m44.942 97.13l-6.15-.894-2.75-5.573c-.435-.881-1.691-.881-2.126 0l-2.75 5.573-6.15.894c-.972.141-1.36 1.336-.657 2.02l4.45 4.338-1.051 6.125c-.166.968.85 1.706 1.72 1.249l5.501-2.892 5.501 2.892c.869.457 1.886-.281 1.72-1.249l-1.051-6.125 4.45-4.338c.703-.686.315-1.881-.657-2.02"/><path d="m68.942 97.13l-6.15-.894-2.75-5.573c-.435-.881-1.691-.881-2.126 0l-2.75 5.573-6.15.894c-.972.141-1.36 1.336-.657 2.02l4.45 4.338-1.051 6.125c-.166.968.85 1.706 1.72 1.249l5.501-2.892 5.501 2.892c.869.457 1.886-.281 1.72-1.249l-1.051-6.125 4.45-4.338c.703-.686.315-1.881-.657-2.02"/></g><g fill="#e0e0e1"><path d="m92.94 97.13l-6.15-.894-2.75-5.573c-.435-.881-1.691-.881-2.126 0l-2.75 5.573-6.15.894c-.972.141-1.36 1.336-.657 2.02l4.45 4.338-1.051 6.125c-.166.968.85 1.706 1.72 1.249l5.501-2.892 5.501 2.892c.869.457 1.886-.281 1.72-1.249l-1.051-6.125 4.45-4.338c.703-.686.315-1.881-.657-2.02"/><path d="m116.94 97.13l-6.15-.894-2.75-5.573c-.435-.881-1.691-.881-2.126 0l-2.75 5.573-6.15.894c-.972.141-1.36 1.336-.657 2.02l4.45 4.338-1.051 6.125c-.166.968.85 1.706 1.72 1.249l5.501-2.892 5.501 2.892c.869.457 1.886-.281 1.72-1.249l-1.051-6.125 4.45-4.338c.703-.686.315-1.881-.657-2.02"/></g><g fill="#ffc834"><path d="m20.942 127.13l-6.15-.894-2.75-5.573c-.435-.881-1.691-.881-2.126 0l-2.75 5.573-6.15.894c-.972.141-1.36 1.336-.657 2.02l4.45 4.338-1.051 6.125c-.166.968.85 1.706 1.72 1.249l5.501-2.892 5.501 2.892c.869.457 1.886-.281 1.72-1.249l-1.051-6.125 4.45-4.338c.703-.686.315-1.881-.657-2.02"/><path d="m44.942 127.13l-6.15-.894-2.75-5.573c-.435-.881-1.691-.881-2.126 0l-2.75 5.573-6.15.894c-.972.141-1.36 1.336-.657 2.02l4.45 4.338-1.051 6.125c-.166.968.85 1.706 1.72 1.249l5.501-2.892 5.501 2.892c.869.457 1.886-.281 1.72-1.249l-1.051-6.125 4.45-4.338c.703-.686.315-1.881-.657-2.02"/><path d="m68.942 127.13l-6.15-.894-2.75-5.573c-.435-.881-1.691-.881-2.126 0l-2.75 5.573-6.15.894c-.972.141-1.36 1.336-.657 2.02l4.45 4.338-1.051 6.125c-.166.968.85 1.706 1.72 1.249l5.501-2.892 5.501 2.892c.869.457 1.886-.281 1.72-1.249l-1.051-6.125 4.45-4.338c.703-.686.315-1.881-.657-2.02"/><path d="m92.94 127.13l-6.15-.894-2.75-5.573c-.435-.881-1.691-.881-2.126 0l-2.75 5.573-6.15.894c-.972.141-1.36 1.336-.657 2.02l4.45 4.338-1.051 6.125c-.166.968.85 1.706 1.72 1.249l5.501-2.892 5.501 2.892c.869.457 1.886-.281 1.72-1.249l-1.051-6.125 4.45-4.338c.703-.686.315-1.881-.657-2.02"/></g><path d="m116.94 127.13l-6.15-.894-2.75-5.573c-.435-.881-1.691-.881-2.126 0l-2.75 5.573-6.15.894c-.972.141-1.36 1.336-.657 2.02l4.45 4.338-1.051 6.125c-.166.968.85 1.706 1.72 1.249l5.501-2.892 5.501 2.892c.869.457 1.886-.281 1.72-1.249l-1.051-6.125 4.45-4.338c.703-.686.315-1.881-.657-2.02" fill="#e0e0e1"/><g fill="#ffc834"><path d="m20.942 157.13l-6.15-.894-2.75-5.573c-.435-.881-1.691-.881-2.126 0l-2.75 5.573-6.15.894c-.972.141-1.36 1.336-.657 2.02l4.45 4.338-1.051 6.125c-.166.968.85 1.706 1.72 1.249l5.501-2.892 5.501 2.892c.869.457 1.886-.281 1.72-1.249l-1.051-6.125 4.45-4.338c.703-.686.315-1.881-.657-2.02"/><path d="m44.942 157.13l-6.15-.894-2.75-5.573c-.435-.881-1.691-.881-2.126 0l-2.75 5.573-6.15.894c-.972.141-1.36 1.336-.657 2.02l4.45 4.338-1.051 6.125c-.166.968.85 1.706 1.72 1.249l5.501-2.892 5.501 2.892c.869.457 1.886-.281 1.72-1.249l-1.051-6.125 4.45-4.338c.703-.686.315-1.881-.657-2.02"/><path d="m68.942 157.13l-6.15-.894-2.75-5.573c-.435-.881-1.691-.881-2.126 0l-2.75 5.573-6.15.894c-.972.141-1.36 1.336-.657 2.02l4.45 4.338-1.051 6.125c-.166.968.85 1.706 1.72 1.249l5.501-2.892 5.501 2.892c.869.457 1.886-.281 1.72-1.249l-1.051-6.125 4.45-4.338c.703-.686.315-1.881-.657-2.02"/><path d="m92.94 157.13l-6.15-.894-2.75-5.573c-.435-.881-1.691-.881-2.126 0l-2.75 5.573-6.15.894c-.972.141-1.36 1.336-.657 2.02l4.45 4.338-1.051 6.125c-.166.968.85 1.706 1.72 1.249l5.501-2.892 5.501 2.892c.869.457 1.886-.281 1.72-1.249l-1.051-6.125 4.45-4.338c.703-.686.315-1.881-.657-2.02"/><path d="m116.94 157.13l-6.15-.894-2.75-5.573c-.435-.881-1.691-.881-2.126 0l-2.75 5.573-6.15.894c-.972.141-1.36 1.336-.657 2.02l4.45 4.338-1.051 6.125c-.166.968.85 1.706 1.72 1.249l5.501-2.892 5.501 2.892c.869.457 1.886-.281 1.72-1.249l-1.051-6.125 4.45-4.338c.703-.686.315-1.881-.657-2.02"/></g><g fill="#e0e0e1"><path d="m20.942 187.13l-6.15-.894-2.75-5.573c-.435-.881-1.691-.881-2.126 0l-2.75 5.573-6.15.894c-.972.141-1.36 1.336-.657 2.02l4.45 4.338-1.051 6.125c-.166.968.85 1.706 1.72 1.249l5.501-2.892 5.501 2.892c.869.457 1.886-.281 1.72-1.249l-1.051-6.125 4.45-4.338c.703-.686.315-1.881-.657-2.02"/><path d="m44.942 187.13l-6.15-.894-2.75-5.573c-.435-.881-1.691-.881-2.126 0l-2.75 5.573-6.15.894c-.972.141-1.36 1.336-.657 2.02l4.45 4.338-1.051 6.125c-.166.968.85 1.706 1.72 1.249l5.501-2.892 5.501 2.892c.869.457 1.886-.281 1.72-1.249l-1.051-6.125 4.45-4.338c.703-.686.315-1.881-.657-2.02"/><path d="m68.942 187.13l-6.15-.894-2.75-5.573c-.435-.881-1.691-.881-2.126 0l-2.75 5.573-6.15.894c-.972.141-1.36 1.336-.657 2.02l4.45 4.338-1.051 6.125c-.166.968.85 1.706 1.72 1.249l5.501-2.892 5.501 2.892c.869.457 1.886-.281 1.72-1.249l-1.051-6.125 4.45-4.338c.703-.686.315-1.881-.657-2.02"/><path d="m92.94 187.13l-6.15-.894-2.75-5.573c-.435-.881-1.691-.881-2.126 0l-2.75 5.573-6.15.894c-.972.141-1.36 1.336-.657 2.02l4.45 4.338-1.051 6.125c-.166.968.85 1.706 1.72 1.249l5.501-2.892 5.501 2.892c.869.457 1.886-.281 1.72-1.249l-1.051-6.125 4.45-4.338c.703-.686.315-1.881-.657-2.02"/><path d="m116.94 187.13l-6.15-.894-2.75-5.573c-.435-.881-1.691-.881-2.126 0l-2.75 5.573-6.15.894c-.972.141-1.36 1.336-.657 2.02l4.45 4.338-1.051 6.125c-.166.968.85 1.706 1.72 1.249l5.501-2.892 5.501 2.892c.869.457 1.886-.281 1.72-1.249l-1.051-6.125 4.45-4.338c.703-.686.315-1.881-.657-2.02"/></g><path d="m20.942 217.13l-6.15-.894-2.75-5.573c-.435-.881-1.691-.881-2.126 0l-2.75 5.573-6.15.894c-.972.141-1.36 1.336-.657 2.02l4.45 4.338-1.051 6.125c-.166.968.85 1.706 1.72 1.249l5.501-2.892 5.501 2.892c.869.457 1.886-.281 1.72-1.249l-1.051-6.125 4.45-4.338c.703-.686.315-1.881-.657-2.02" fill="#ffc834"/><g transform="translate(0 180)"><use fill="#ffc834" xlink:href="#0"/><use fill="#e0e0e1" mask="url(#5)" xlink:href="#B"/></g><path d="m44.942 217.13l-6.15-.894-2.75-5.573c-.435-.881-1.691-.881-2.126 0l-2.75 5.573-6.15.894c-.972.141-1.36 1.336-.657 2.02l4.45 4.338-1.051 6.125c-.166.968.85 1.706 1.72 1.249l5.501-2.892 5.501 2.892c.869.457 1.886-.281 1.72-1.249l-1.051-6.125 4.45-4.338c.703-.686.315-1.881-.657-2.02" fill="#e0e0e1"/><g transform="translate(24 210)"><use fill="#ffc834" xlink:href="#1"/><use fill="#e0e0e1" mask="url(#6)" xlink:href="#B"/></g><g fill="#e0e0e1"><path d="m68.942 217.13l-6.15-.894-2.75-5.573c-.435-.881-1.691-.881-2.126 0l-2.75 5.573-6.15.894c-.972.141-1.36 1.336-.657 2.02l4.45 4.338-1.051 6.125c-.166.968.85 1.706 1.72 1.249l5.501-2.892 5.501 2.892c.869.457 1.886-.281 1.72-1.249l-1.051-6.125 4.45-4.338c.703-.686.315-1.881-.657-2.02"/><path d="m92.94 217.13l-6.15-.894-2.75-5.573c-.435-.881-1.691-.881-2.126 0l-2.75 5.573-6.15.894c-.972.141-1.36 1.336-.657 2.02l4.45 4.338-1.051 6.125c-.166.968.85 1.706 1.72 1.249l5.501-2.892 5.501 2.892c.869.457 1.886-.281 1.72-1.249l-1.051-6.125 4.45-4.338c.703-.686.315-1.881-.657-2.02"/><path d="m116.94 217.13l-6.15-.894-2.75-5.573c-.435-.881-1.691-.881-2.126 0l-2.75 5.573-6.15.894c-.972.141-1.36 1.336-.657 2.02l4.45 4.338-1.051 6.125c-.166.968.85 1.706 1.72 1.249l5.501-2.892 5.501 2.892c.869.457 1.886-.281 1.72-1.249l-1.051-6.125 4.45-4.338c.703-.686.315-1.881-.657-2.02"/></g><g fill="#ffc834"><path d="m20.942 247.13l-6.15-.894-2.75-5.573c-.435-.881-1.691-.881-2.126 0l-2.75 5.573-6.15.894c-.972.141-1.36 1.336-.657 2.02l4.45 4.338-1.051 6.125c-.166.968.85 1.706 1.72 1.249l5.501-2.892 5.501 2.892c.869.457 1.886-.281 1.72-1.249l-1.051-6.125 4.45-4.338c.703-.686.315-1.881-.657-2.02"/><path d="m44.942 247.13l-6.15-.894-2.75-5.573c-.435-.881-1.691-.881-2.126 0l-2.75 5.573-6.15.894c-.972.141-1.36 1.336-.657 2.02l4.45 4.338-1.051 6.125c-.166.968.85 1.706 1.72 1.249l5.501-2.892 5.501 2.892c.869.457 1.886-.281 1.72-1.249l-1.051-6.125 4.45-4.338c.703-.686.315-1.881-.657-2.02"/></g><path d="m68.942 247.13l-6.15-.894-2.75-5.573c-.435-.881-1.691-.881-2.126 0l-2.75 5.573-6.15.894c-.972.141-1.36 1.336-.657 2.02l4.45 4.338-1.051 6.125c-.166.968.85 1.706 1.72 1.249l5.501-2.892 5.501 2.892c.869.457 1.886-.281 1.72-1.249l-1.051-6.125 4.45-4.338c.703-.686.315-1.881-.657-2.02" fill="#e0e0e1"/><g transform="translate(48 240)"><use fill="#ffc834" xlink:href="#2"/><use fill="#e0e0e1" mask="url(#7)" xlink:href="#B"/></g><g fill="#e0e0e1"><path d="m92.94 247.13l-6.15-.894-2.75-5.573c-.435-.881-1.691-.881-2.126 0l-2.75 5.573-6.15.894c-.972.141-1.36 1.336-.657 2.02l4.45 4.338-1.051 6.125c-.166.968.85 1.706 1.72 1.249l5.501-2.892 5.501 2.892c.869.457 1.886-.281 1.72-1.249l-1.051-6.125 4.45-4.338c.703-.686.315-1.881-.657-2.02"/><path d="m116.94 247.13l-6.15-.894-2.75-5.573c-.435-.881-1.691-.881-2.126 0l-2.75 5.573-6.15.894c-.972.141-1.36 1.336-.657 2.02l4.45 4.338-1.051 6.125c-.166.968.85 1.706 1.72 1.249l5.501-2.892 5.501 2.892c.869.457 1.886-.281 1.72-1.249l-1.051-6.125 4.45-4.338c.703-.686.315-1.881-.657-2.02"/></g><g fill="#ffc834"><path d="m20.942 277.13l-6.15-.894-2.75-5.573c-.435-.881-1.691-.881-2.126 0l-2.75 5.573-6.15.894c-.972.141-1.36 1.336-.657 2.02l4.45 4.338-1.051 6.125c-.166.968.85 1.706 1.72 1.249l5.501-2.892 5.501 2.892c.869.457 1.886-.281 1.72-1.249l-1.051-6.125 4.45-4.338c.703-.686.315-1.881-.657-2.02"/><path d="m44.942 277.13l-6.15-.894-2.75-5.573c-.435-.881-1.691-.881-2.126 0l-2.75 5.573-6.15.894c-.972.141-1.36 1.336-.657 2.02l4.45 4.338-1.051 6.125c-.166.968.85 1.706 1.72 1.249l5.501-2.892 5.501 2.892c.869.457 1.886-.281 1.72-1.249l-1.051-6.125 4.45-4.338c.703-.686.315-1.881-.657-2.02"/><path d="m68.942 277.13l-6.15-.894-2.75-5.573c-.435-.881-1.691-.881-2.126 0l-2.75 5.573-6.15.894c-.972.141-1.36 1.336-.657 2.02l4.45 4.338-1.051 6.125c-.166.968.85 1.706 1.72 1.249l5.501-2.892 5.501 2.892c.869.457 1.886-.281 1.72-1.249l-1.051-6.125 4.45-4.338c.703-.686.315-1.881-.657-2.02"/></g><path d="m92.94 277.13l-6.15-.894-2.75-5.573c-.435-.881-1.691-.881-2.126 0l-2.75 5.573-6.15.894c-.972.141-1.36 1.336-.657 2.02l4.45 4.338-1.051 6.125c-.166.968.85 1.706 1.72 1.249l5.501-2.892 5.501 2.892c.869.457 1.886-.281 1.72-1.249l-1.051-6.125 4.45-4.338c.703-.686.315-1.881-.657-2.02" fill="#e0e0e1"/><g transform="translate(72 270)"><use fill="#ffc834" xlink:href="#3"/><use fill="#e0e0e1" mask="url(#8)" xlink:href="#B"/></g><path d="m116.94 277.13l-6.15-.894-2.75-5.573c-.435-.881-1.691-.881-2.126 0l-2.75 5.573-6.15.894c-.972.141-1.36 1.336-.657 2.02l4.45 4.338-1.051 6.125c-.166.968.85 1.706 1.72 1.249l5.501-2.892 5.501 2.892c.869.457 1.886-.281 1.72-1.249l-1.051-6.125 4.45-4.338c.703-.686.315-1.881-.657-2.02" fill="#e0e0e1"/><g fill="#ffc834"><path d="m20.942 307.13l-6.15-.894-2.75-5.573c-.435-.881-1.691-.881-2.126 0l-2.75 5.573-6.15.894c-.972.141-1.36 1.336-.657 2.02l4.45 4.338-1.051 6.125c-.166.968.85 1.706 1.72 1.249l5.501-2.892 5.501 2.892c.869.457 1.886-.281 1.72-1.249l-1.051-6.125 4.45-4.338c.703-.686.315-1.881-.657-2.02"/><path d="m44.942 307.13l-6.15-.894-2.75-5.573c-.435-.881-1.691-.881-2.126 0l-2.75 5.573-6.15.894c-.972.141-1.36 1.336-.657 2.02l4.45 4.338-1.051 6.125c-.166.968.85 1.706 1.72 1.249l5.501-2.892 5.501 2.892c.869.457 1.886-.281 1.72-1.249l-1.051-6.125 4.45-4.338c.703-.686.315-1.881-.657-2.02"/><path d="m68.942 307.13l-6.15-.894-2.75-5.573c-.435-.881-1.691-.881-2.126 0l-2.75 5.573-6.15.894c-.972.141-1.36 1.336-.657 2.02l4.45 4.338-1.051 6.125c-.166.968.85 1.706 1.72 1.249l5.501-2.892 5.501 2.892c.869.457 1.886-.281 1.72-1.249l-1.051-6.125 4.45-4.338c.703-.686.315-1.881-.657-2.02"/><path d="m92.94 307.13l-6.15-.894-2.75-5.573c-.435-.881-1.691-.881-2.126 0l-2.75 5.573-6.15.894c-.972.141-1.36 1.336-.657 2.02l4.45 4.338-1.051 6.125c-.166.968.85 1.706 1.72 1.249l5.501-2.892 5.501 2.892c.869.457 1.886-.281 1.72-1.249l-1.051-6.125 4.45-4.338c.703-.686.315-1.881-.657-2.02"/></g><path d="m116.94 307.13l-6.15-.894-2.75-5.573c-.435-.881-1.691-.881-2.126 0l-2.75 5.573-6.15.894c-.972.141-1.36 1.336-.657 2.02l4.45 4.338-1.051 6.125c-.166.968.85 1.706 1.72 1.249l5.501-2.892 5.501 2.892c.869.457 1.886-.281 1.72-1.249l-1.051-6.125 4.45-4.338c.703-.686.315-1.881-.657-2.02" fill="#e0e0e1"/><g transform="translate(96 300)"><use fill="#ffc834" xlink:href="#4"/><use fill="#e0e0e1" mask="url(#9)" xlink:href="#B"/></g></g></svg>