<svg viewBox="0 0 60 132" xmlns="http://www.w3.org/2000/svg" xmlns:xlink="http://www.w3.org/1999/xlink"><defs><path id="0" d="m12 4.358l-4.146-.603-1.854-3.755-1.855 3.755-4.145.603 3 2.924-.708 4.128 3.708-1.949 3.707 1.949-.707-4.128 3-2.924"/><path id="1" d="m36 4.358l-4.146-.603-1.854-3.755-1.855 3.755-4.145.603 3 2.924-.708 4.128 3.708-1.949 3.707 1.949-.707-4.128 3-2.924"/><path id="2" d="m60 4.358l-4.146-.603-1.854-3.755-1.855 3.755-4.145.603 3 2.924-.708 4.128 3.708-1.949 3.707 1.949-.707-4.128 3-2.924"/><path id="3" d="m48 4.358l-4.146-.603-1.854-3.755-1.855 3.755-4.145.603 3 2.924-.708 4.128 3.708-1.949 3.707 1.949-.707-4.128 3-2.924"/><path id="4" d="m24 4.358l-4.146-.603-1.854-3.755-1.855 3.755-4.145.603 3 2.924-.708 4.128 3.708-1.949 3.707 1.949-.707-4.128 3-2.924"/></defs><g fill="none" fill-rule="evenodd"><g fill="#ffc834"><use xlink:href="#0"/><path d="m24 4.358l-4.146-.603-1.854-3.755-1.855 3.755-4.145.603 3 2.924-.708 4.128 3.708-1.949 3.707 1.949-.707-4.128 3-2.924"/><use xlink:href="#1"/><path d="m48 4.358l-4.146-.603-1.854-3.755-1.855 3.755-4.145.603 3 2.924-.708 4.128 3.708-1.949 3.707 1.949-.707-4.128 3-2.924"/><use xlink:href="#2"/></g><g transform="translate(0 12)"><g fill="#ffc834"><use xlink:href="#0"/><path d="m24 4.358l-4.146-.603-1.854-3.755-1.855 3.755-4.145.603 3 2.924-.708 4.128 3.708-1.949 3.707 1.949-.707-4.128 3-2.924"/><use xlink:href="#1"/><use xlink:href="#3"/></g><use fill="#c0c1c3" xlink:href="#2"/></g><g transform="translate(0 24)"><g fill="#ffc834"><use xlink:href="#0"/><path d="m24 4.358l-4.146-.603-1.854-3.755-1.855 3.755-4.145.603 3 2.924-.708 4.128 3.708-1.949 3.707 1.949-.707-4.128 3-2.924"/><use xlink:href="#1"/></g><g fill="#c0c1c3"><use xlink:href="#3"/><use xlink:href="#2"/></g></g><g transform="translate(0 36)"><g fill="#ffc834"><use xlink:href="#0"/><use xlink:href="#4"/></g><g fill="#c0c1c3"><use xlink:href="#1"/><use xlink:href="#3"/><use xlink:href="#2"/></g></g><g transform="translate(0 48)"><use fill="#ffc834" xlink:href="#0"/><g fill="#c0c1c3"><use xlink:href="#4"/><use xlink:href="#1"/><use xlink:href="#3"/><use xlink:href="#2"/></g></g><g transform="translate(0 60)" fill="#c0c1c3"><use xlink:href="#0"/><use xlink:href="#4"/><use xlink:href="#1"/><use xlink:href="#3"/><use xlink:href="#2"/></g><g transform="translate(0 72)"><use fill="#c0c1c3" xlink:href="#2"/><g fill="#ffc834"><use xlink:href="#0"/><use xlink:href="#4"/><use xlink:href="#1"/><use xlink:href="#3"/><path d="m54 0l-1.855 3.755-4.145.603 3 2.924-.708 4.128 3.708-1.949"/></g></g><g transform="translate(0 84)"><g fill="#ffc834"><use xlink:href="#0"/><use xlink:href="#4"/><use xlink:href="#1"/></g><use fill="#c0c1c3" xlink:href="#3"/><path d="m42 0l-1.855 3.755-4.145.603 3 2.924-.708 4.128 3.708-1.949" fill="#ffc834"/><use fill="#c0c1c3" xlink:href="#2"/></g><g transform="translate(0 96)"><g fill="#ffc834"><use xlink:href="#0"/><use xlink:href="#4"/></g><use fill="#c0c1c3" xlink:href="#1"/><path d="m30 0l-1.855 3.755-4.145.603 3 2.924-.708 4.128 3.708-1.949" fill="#ffc834"/><g fill="#c0c1c3"><use xlink:href="#3"/><use xlink:href="#2"/></g></g><g transform="translate(0 108)"><use fill="#ffc834" xlink:href="#0"/><use fill="#c0c1c3" xlink:href="#4"/><path d="m18 0l-1.855 3.755-4.145.603 3 2.924-.708 4.128 3.708-1.949" fill="#ffc834"/><g fill="#c0c1c3"><use xlink:href="#1"/><use xlink:href="#3"/><use xlink:href="#2"/></g></g><g transform="translate(0 120)"><g fill="#c0c1c3"><use xlink:href="#0"/><use xlink:href="#4"/></g><path d="m6 0l-1.855 3.755-4.145.603 3 2.924-.708 4.128 3.708-1.949" fill="#ffc834"/><g fill="#c0c1c3"><use xlink:href="#1"/><use xlink:href="#3"/><use xlink:href="#2"/></g></g></g></svg>