<svg viewBox="0 0 18 18" xmlns="http://www.w3.org/2000/svg"><g fill="none" fill-rule="evenodd"><path d="m15.249 2.67c-1.596-1.616-3.8-2.615-6.236-2.615-2.435 0-4.64.999-6.236 2.615-1.596 1.616-2.583 3.848-2.583 6.314 0 2.466.987 4.698 2.583 6.314 1.596 1.616 3.801 2.615 6.236 2.615 2.435 0 4.64-.999 6.236-2.615 1.596-1.616 2.583-3.848 2.583-6.314 0-2.466-.987-4.698-2.583-6.314m-6.236 12.05c-1.565 0-2.982-.642-4.01-1.681-1.026-1.038-1.66-2.473-1.66-4.058 0-1.585.634-3.02 1.66-4.058 1.026-1.039 2.443-1.681 4.01-1.681 1.565 0 2.982.642 4.01 1.681 1.026 1.038 1.66 2.473 1.66 4.058 0 1.585-.634 3.02-1.66 4.058-1.026 1.038-2.442 1.681-4.01 1.681" fill="#92629b"/><path d="m9.01 14.722v3.191c2.435 0 4.64-.999 6.236-2.615l-2.228-2.256c-1.026 1.038-2.442 1.681-4.01 1.681" fill="#c550cf"/><path d="m9.01.054v3.19c1.565 0 2.982.642 4.01 1.681l2.228-2.256c-1.596-1.616-3.8-2.615-6.236-2.615" fill="#bb61e1"/><path d="m17.832 8.984c0-2.466-.987-4.698-2.583-6.314l-2.228 2.256c1.026 1.038 1.66 2.473 1.66 4.058h3.151" fill="#ba4fd9"/><path d="m14.681 8.984c0 1.585-.634 3.02-1.66 4.058l2.228 2.256c1.596-1.616 2.583-3.848 2.583-6.314h-3.151" fill="#c14cd1"/><path d="m5.01 4.926l-2.228-2.256c-1.596 1.616-2.583 3.848-2.583 6.314h3.151c0-1.585.634-3.02 1.66-4.058" fill="#de60bf"/><path d="m3.346 8.984h-3.151c0 2.466.987 4.698 2.583 6.314l2.228-2.256c-1.026-1.038-1.66-2.473-1.66-4.058" fill="#d65bc5"/><path d="m2.777 15.297c1.596 1.616 3.801 2.615 6.236 2.615v-3.191c-1.565 0-2.982-.642-4.01-1.681l-2.228 2.256" fill="#ce55c9"/><path d="m10.238 1.596l-1.224-1.542c-2.435 0-4.64.999-6.236 2.615l2.228 2.256c1.024-1.037 2.438-1.679 4-1.681l.007.005 1.224-1.655" fill="#e968b9"/></g></svg>